<?xml version="1.0" encoding="utf-8"?>
<!-- Generator: Adobe Illustrator 24.2.0, SVG Export Plug-In . SVG Version: 6.00 Build 0)  -->
<svg version="1.1" id="Layer_1" xmlns="http://www.w3.org/2000/svg" xmlns:xlink="http://www.w3.org/1999/xlink" x="0px" y="0px"
	 viewBox="0 0 3218.8 1881" style="enable-background:new 0 0 3218.8 1881;" xml:space="preserve">
<style type="text/css">
	.st0{clip-path:url(#SVGID_2_);}
	.st1{fill:#EFF3FC;}
	.st2{opacity:0.2;}
	.st3{fill:none;stroke:#0D0B29;stroke-miterlimit:10;}
	.st4{fill:#FFFFFF;}
	.st5{opacity:0.2;clip-path:url(#SVGID_4_);}
	.st6{fill:#0D0B29;}
	.st7{clip-path:url(#SVGID_6_);}
	.st8{fill:url(#Polygon_11_1_);}
	.st9{fill:url(#Polygon_11-2_1_);}
	.st10{fill:#264CFF;}
	.st11{fill:#4BF3D5;}
	.st12{fill:none;stroke:#FFFFFF;stroke-width:5;stroke-linecap:round;}
	.st13{opacity:0.43;fill:url(#Path_532_1_);enable-background:new    ;}
	.st14{opacity:0.464;fill:url(#Path_533_1_);enable-background:new    ;}
	.st15{fill:url(#Path_534_1_);}
	.st16{fill:url(#Path_536_1_);}
	.st17{fill:#1866ED;}
	.st18{fill:url(#Path_538_1_);}
	.st19{fill:url(#Path_539_1_);}
	.st20{opacity:0.617;fill:#1E1A5F;enable-background:new    ;}
	.st21{fill:url(#Path_540_1_);}
	.st22{fill:url(#Path_542_1_);}
	.st23{fill:url(#Path_552_1_);}
	.st24{opacity:0.421;fill:#0D0B29;enable-background:new    ;}
</style>
<g>
	<defs>
		<path id="SVGID_1_" d="M1100.6,568.4h1785.3V1304c0,18.8-15.2,33.9-34,33.9H1134.6c-18.8,0-34-15.2-34-33.9V568.4z"/>
	</defs>
	<clipPath id="SVGID_2_">
		<use xlink:href="#SVGID_1_"  style="overflow:visible;"/>
	</clipPath>
	<g class="st0">
		<g id="Hero_BG">
			<rect id="BG_Colour" x="1048.6" y="567.3" class="st1" width="1897.9" height="859"/>
			<g id="Graphic_Security_Print" class="st2">
				<g id="Graphic_Security_Print-2">
					<path id="Path_87" class="st3" d="M3199,745.7c0,0-218.9-56.6-329.4,148.1c-108,200.2-260.7,113.1-357.2,198.3
						c-96.5,85.2-102.9,278.6,81.1,338.4c229.9,76,221.6,449.1,221.6,449.1l361.6-406.1"/>
					<path id="Path_88" class="st3" d="M2875.6,1517.5c0,0-99.9-124.7-239.8-169.5s-106.8-147-72.5-177
						c71.1-62.1,246.3,8.2,321.4-112.4c56.5-90.7,71.7-303.6,333.8-214.2"/>
					<path id="Path_89" class="st3" d="M2919.8,1459.2c0,0-213.3-80.8-142.2-161.9c81.6-93,144.5-58.8,153.1-224.7
						c3.1-59,95.5-256,193.7-156.7"/>
					
						<ellipse id="Ellipse_14" transform="matrix(0.454 -0.891 0.891 0.454 344.8263 3048.2866)" class="st3" cx="2659.6" cy="1242.8" rx="45.5" ry="67"/>
				</g>
			</g>
			<path id="Corner_Shape" class="st4" d="M79.8,794.1c0,0,85.5,173.3,264.7,144.7s1127.9-208.1,1127.9-208.1
				s154.3-20.2,204.8-142.9S1910.6,0,1910.6,0L0,318.1L79.8,794.1z"/>
		</g>
	</g>
</g>
<path class="st1" d="M248.3,952.1c-0.9,3.9-1.7,7.6-2.4,11C219,1085.8,136.8,1106,136.8,1106s-37.8,13.4-94.6,33.5v608
	c0,35.1,15.2,63.5,33.9,63.5h522.6c18.7,0,33.9,0,33.9-63.5V952.1H248.3z"/>
<g>
	<defs>
		<path id="SVGID_3_" d="M248.3,1317.8c-0.9,2.2-1.7,4.4-2.4,6.3c-26.9,70.5-109.2,82.1-109.2,82.1s-37.8,7.7-94.6,19.2v349.2
			c0,20.2,15.2,36.5,33.9,36.5h522.6c18.7,0,33.9-16.3,33.9-36.5v-456.8H248.3z"/>
	</defs>
	<clipPath id="SVGID_4_">
		<use xlink:href="#SVGID_3_"  style="overflow:visible;"/>
	</clipPath>
	<g id="Graphic_Security_Print_1_" class="st5">
		<g id="Graphic_Security_Print-2_1_">
			<path id="Path_87_1_" class="st3" d="M785.5,1411.3c0,0-116.7-32.5-175.6,85.1c-57.6,115-138.9,65-190.4,113.9
				s-54.8,160,43.2,194.3c122.5,43.6,118.1,257.9,118.1,257.9l192.7-233.2"/>
			<path id="Path_88_1_" class="st3" d="M613.1,1854.4c0,0-53.3-71.6-127.8-97.3c-74.5-25.7-56.9-84.4-38.6-101.6
				c37.9-35.7,131.3,4.7,171.3-64.6c30.1-52.1,38.2-174.4,177.9-123"/>
			<path id="Path_89_1_" class="st3" d="M636.7,1821c0,0-113.7-46.4-75.8-93c43.5-53.4,77-33.8,81.6-129c1.6-33.9,50.9-147,103.3-90
				"/>
			
				<ellipse id="Ellipse_14_1_" transform="matrix(0.5334 -0.8459 0.8459 0.5334 -1202.8275 1212.9167)" class="st3" cx="498" cy="1696.7" rx="25.7" ry="36.3"/>
		</g>
	</g>
</g>
<rect id="Rectangle_241" x="867.9" y="1599.2" class="st6" width="376" height="278"/>
<g>
	<defs>
		<rect id="SVGID_5_" x="867.9" y="1599.2" width="376" height="278"/>
	</defs>
	<clipPath id="SVGID_6_">
		<use xlink:href="#SVGID_5_"  style="overflow:visible;"/>
	</clipPath>
	<g id="Group_55" class="st7">
		
			<linearGradient id="Polygon_11_1_" gradientUnits="userSpaceOnUse" x1="648.7742" y1="1478.2146" x2="648.6362" y2="1477.9675" gradientTransform="matrix(389.6145 0 0 -388.8333 -251027.1719 576612.625)">
			<stop  offset="0" style="stop-color:#1866ED"/>
			<stop  offset="1" style="stop-color:#022EFF;stop-opacity:0"/>
		</linearGradient>
		<path id="Polygon_11" class="st8" d="M1570.3,1762.8c75.8-75.3,198.1-75.3,274,0l0,0c123.2,122.3,36.6,332.4-137,332.4l0,0
			C1533.7,2095.2,1447.1,1885.1,1570.3,1762.8L1570.3,1762.8z"/>
		
			<linearGradient id="Polygon_11-2_1_" gradientUnits="userSpaceOnUse" x1="648.9003" y1="1478.2645" x2="648.7353" y2="1478.0985" gradientTransform="matrix(389.6145 0 0 -388.8333 -251295.25 576735.1875)">
			<stop  offset="0" style="stop-color:#1866ED"/>
			<stop  offset="1" style="stop-color:#002FFF;stop-opacity:0"/>
		</linearGradient>
		<path id="Polygon_11-2" class="st9" d="M1302.2,1885.4c75.8-75.3,198.1-75.3,274,0l0,0c123.2,122.3,36.6,332.4-137,332.4l0,0
			C1265.6,2217.8,1179.1,2007.6,1302.2,1885.4L1302.2,1885.4z"/>
		<g id="Group_186" transform="translate(817.915 46.942)">
			<path id="Rectangle_310" d="M886.1,1599.7H918c10.1,0,18.3,8.2,18.3,18.3l0,0v18.3l0,0h-50.1c-10.1,0-18.3-8.2-18.3-18.3l0,0
				C867.9,1607.9,876.1,1599.7,886.1,1599.7z"/>
			<path id="Rectangle_311" d="M922.5,1606.5L922.5,1606.5c14.3,0,26,11.6,26,26v13.3c0,14.3-11.6,26-26,26h0c-14.3,0-26-11.6-26-26
				v-13.3C896.5,1618.1,908.1,1606.5,922.5,1606.5z"/>
			<path id="Rectangle_312" class="st10" d="M906.5,1606.5h31.9c5.5,0,10,4.5,10,10v45.2c0,5.5-4.5,10-10,10h-31.9
				c-5.5,0-10-4.5-10-10v-45.2C896.5,1610.9,901,1606.5,906.5,1606.5z"/>
			<path id="Rectangle_313" class="st11" d="M886.4,1599.2h35c10.2,0,18.5,8.3,18.5,18.5l0,0v18.5l0,0h-53.5
				c-10.2,0-18.5-8.3-18.5-18.5l0,0C867.9,1607.5,876.2,1599.2,886.4,1599.2z"/>
			<path id="Path_301" class="st12" d="M920.4,1652.4h17.1"/>
			<path id="Path_302" class="st12" d="M920.4,1659.7h17.1"/>
		</g>
		
			<linearGradient id="Path_532_1_" gradientUnits="userSpaceOnUse" x1="650.6154" y1="1479.6489" x2="651.3094" y2="1479.7329" gradientTransform="matrix(203.6078 203.6078 800.3674 -800.3674 -1315590.375 1053390.875)">
			<stop  offset="0" style="stop-color:#0835FF"/>
			<stop  offset="1" style="stop-color:#002FFF;stop-opacity:0"/>
		</linearGradient>
		<path id="Path_532" class="st13" d="M1679.9,1249.1c54.5,53.3,55.5,140.7,2.2,195.2c-0.7,0.7-1.4,1.5-2.2,2.2l-606.2,596.8
			c-55.4,54.5-145.1,54.5-200.4,0c-54.5-53.3-55.5-140.7-2.2-195.2c0.7-0.7,1.4-1.5,2.2-2.2l606.2-596.8
			C1534.8,1194.6,1624.5,1194.6,1679.9,1249.1z"/>
		
			<linearGradient id="Path_533_1_" gradientUnits="userSpaceOnUse" x1="646.0464" y1="1482.0468" x2="646.0104" y2="1482.3817" gradientTransform="matrix(-90.9315 -90.9315 -329.9026 329.9026 548741.0625 -428527.7188)">
			<stop  offset="0" style="stop-color:#2C2C2C"/>
			<stop  offset="1" style="stop-color:#002FFF;stop-opacity:0"/>
		</linearGradient>
		<path id="Path_533" class="st14" d="M773.8,1952.5c-24.4-23.9-24.8-63-1-87.4c0.3-0.3,0.6-0.7,1-1l242.7-239
			c24.9-24.4,64.8-24.4,89.7,0c24.4,23.9,24.8,63,1,87.4c-0.3,0.3-0.6,0.6-1,1l-242.7,239C838.6,1976.9,798.8,1976.9,773.8,1952.5z"
			/>
		
			<linearGradient id="Path_534_1_" gradientUnits="userSpaceOnUse" x1="641.1608" y1="1450.6644" x2="640.1608" y2="1450.6644" gradientTransform="matrix(72.1771 -72.1771 -10.6524 -10.6524 -29609.3457 62932.7148)">
			<stop  offset="0" style="stop-color:#4BF3D5;stop-opacity:0.463"/>
			<stop  offset="1" style="stop-color:#00FFD1;stop-opacity:0"/>
		</linearGradient>
		<path id="Path_534" class="st15" d="M1142.2,1264.3l62.5-61.5c2.8-2.8,7.4-2.8,10.2,0c2.8,2.7,2.8,7.2,0.1,10c0,0-0.1,0.1-0.1,0.1
			l-62.5,61.5c-2.8,2.8-7.4,2.8-10.2,0c-2.8-2.7-2.8-7.2-0.1-10C1142.1,1264.3,1142.2,1264.3,1142.2,1264.3z"/>
		<path id="Path_535" class="st11" d="M1196,1211.3l8.7-8.6c2.8-2.8,7.4-2.8,10.2,0c2.8,2.7,2.8,7.2,0.1,10c0,0-0.1,0.1-0.1,0.1
			l-8.7,8.6c-2.8,2.8-7.4,2.8-10.2,0c-2.8-2.7-2.8-7.2-0.1-10C1195.9,1211.4,1196,1211.3,1196,1211.3z"/>
		
			<linearGradient id="Path_536_1_" gradientUnits="userSpaceOnUse" x1="646.4807" y1="1457.7308" x2="645.9116" y2="1457.6528" gradientTransform="matrix(181.7541 -181.7541 -13.9173 -13.9173 -96180.9141 139558.9531)">
			<stop  offset="0" style="stop-color:#1866ED"/>
			<stop  offset="1" style="stop-color:#002FFF;stop-opacity:0"/>
		</linearGradient>
		<path id="Path_536" class="st16" d="M852,1938.6l170.5-167.8c3.5-3.5,9.2-3.5,12.7,0c3.5,3.4,3.5,8.9,0.1,12.4
			c0,0-0.1,0.1-0.1,0.1l-170.5,167.8c-3.5,3.4-9.2,3.4-12.7,0c-3.5-3.4-3.5-8.9-0.1-12.4C851.9,1938.7,852,1938.6,852,1938.6z"/>
		<path id="Path_537" class="st17" d="M1218.5,1969.6l170.5-167.8c3.5-3.5,9.2-3.5,12.7,0c3.5,3.4,3.5,8.9,0.1,12.4
			c0,0-0.1,0.1-0.1,0.1l-170.5,167.8c-3.5,3.4-9.2,3.4-12.7,0c-3.5-3.4-3.5-8.9-0.1-12.4C1218.4,1969.7,1218.4,1969.6,1218.5,1969.6
			z"/>
		
			<linearGradient id="Path_538_1_" gradientUnits="userSpaceOnUse" x1="644.8147" y1="1456.7286" x2="643.8147" y2="1456.7286" gradientTransform="matrix(123.0373 -123.0373 -13.37 -13.37 -58825.0469 100513.25)">
			<stop  offset="0" style="stop-color:#FA9F0C"/>
			<stop  offset="1" style="stop-color:#FA9F0C;stop-opacity:0"/>
		</linearGradient>
		<path id="Path_538" class="st18" d="M911.2,1810.7l111.4-109.7c3.5-3.4,9.1-3.4,12.6,0c3.4,3.4,3.5,8.8,0.1,12.3
			c0,0-0.1,0.1-0.1,0.1l-111.4,109.7c-3.5,3.4-9.1,3.4-12.6,0c-3.4-3.4-3.5-8.8-0.1-12.3C911.2,1810.8,911.2,1810.7,911.2,1810.7z"
			/>
		
			<linearGradient id="Path_539_1_" gradientUnits="userSpaceOnUse" x1="646.7056" y1="1477.9785" x2="645.7056" y2="1477.9785" gradientTransform="matrix(193.6574 -193.6574 -126.0479 -126.0479 62001.6484 313052.2188)">
			<stop  offset="0" style="stop-color:#0835FF"/>
			<stop  offset="1" style="stop-color:#002FFF;stop-opacity:0"/>
		</linearGradient>
		<path id="Path_539" class="st19" d="M750.4,1585.1l68.7-67.6c34.9-34.4,91.6-34.4,126.5,0c34.4,33.6,35,88.8,1.4,123.2
			c-0.5,0.5-0.9,0.9-1.4,1.4l-68.7,67.6c-34.9,34.4-91.6,34.4-126.5,0c-34.4-33.6-35-88.8-1.4-123.2
			C749.5,1586,750,1585.6,750.4,1585.1z"/>
		<path id="Polygon_10" class="st20" d="M1027.8,1692.9c-78,77.5-203.9,77.5-281.9,0l-57.3-56.9C562,1510.2,651.1,1294,829.6,1294
			h114.6c178.5,0,267.6,216.1,140.9,341.9L1027.8,1692.9z"/>
		
			<linearGradient id="Path_540_1_" gradientUnits="userSpaceOnUse" x1="632.2583" y1="1481.4614" x2="632.3793" y2="1481.5505" gradientTransform="matrix(-18.7399 -18.7399 -545.7643 545.7643 821172.8125 -794896.3125)">
			<stop  offset="0" style="stop-color:#1866ED"/>
			<stop  offset="1" style="stop-color:#1866ED;stop-opacity:0"/>
		</linearGradient>
		<path id="Path_540" class="st21" d="M402,2162.7c-4-3.9-4.1-10.3-0.2-14.3c0.1-0.1,0.1-0.1,0.2-0.2l535.3-527c4.1-4,10.6-4,14.7,0
			c4,3.9,4.1,10.3,0.2,14.3c-0.1,0.1-0.1,0.1-0.2,0.2l-535.3,527C412.6,2166.7,406.1,2166.7,402,2162.7z"/>
		
			<linearGradient id="Path_542_1_" gradientUnits="userSpaceOnUse" x1="644.8108" y1="1456.7728" x2="644.2038" y2="1456.7189" gradientTransform="matrix(123.0373 -123.0373 -13.37 -13.37 -58922.9805 100533.9688)">
			<stop  offset="0" style="stop-color:#2FFFDA"/>
			<stop  offset="1" style="stop-color:#00FFD1;stop-opacity:0"/>
		</linearGradient>
		<path id="Path_542" class="st22" d="M813.3,1831.4l111.4-109.7c3.5-3.4,9.1-3.4,12.6,0c3.4,3.4,3.5,8.8,0.1,12.3
			c0,0-0.1,0.1-0.1,0.1l-111.4,109.7c-3.5,3.4-9.1,3.4-12.6,0c-3.4-3.4-3.5-8.8-0.1-12.3C813.2,1831.5,813.3,1831.4,813.3,1831.4z"
			/>
		
			<linearGradient id="Path_552_1_" gradientUnits="userSpaceOnUse" x1="646.3212" y1="1458.376" x2="646.0582" y2="1458.123" gradientTransform="matrix(185.5413 -185.5413 -14.2051 -14.2051 -97962.8594 142506.1406)">
			<stop  offset="0" style="stop-color:#1866ED"/>
			<stop  offset="1" style="stop-color:#002FFF;stop-opacity:0"/>
		</linearGradient>
		<path id="Path_552" class="st23" d="M1101.9,2001.5l174-171.3c3.6-3.5,9.4-3.5,13,0c3.5,3.4,3.6,9.1,0.1,12.6c0,0-0.1,0.1-0.1,0.1
			l-174,171.3c-3.6,3.5-9.4,3.5-13,0c-3.5-3.4-3.6-9.1-0.1-12.6C1101.8,2001.6,1101.9,2001.5,1101.9,2001.5z"/>
		<rect id="Rectangle_451" x="867.9" y="1599.3" class="st24" width="376" height="278"/>
	</g>
</g>
</svg>
