<svg xmlns="http://www.w3.org/2000/svg" viewBox="0 0 1038 554"><defs><style>.cls-1{fill:#fa9f0c;}.cls-2{fill:#f98c0b;}.cls-3{fill:#fbb70f;}.cls-4{fill:#6b4200;}.cls-5{fill:#e68e00;}.cls-5,.cls-7{opacity:0.5;}.cls-6{fill:#fff;}.cls-7{fill:#d28100;}.cls-8{fill:#fcc913;}.cls-9{fill:#f88109;}</style></defs><g id="Layer_2" data-name="Layer 2"><g id="Layer_1-2" data-name="Layer 1"><path class="cls-1" d="M0,279.73V554H659.78L914.47,357.62A167.53,167.53,0,0,1,1038,324.15V0H770L458.12,229.16C321.27,329.71,146,343.12,0,279.73Z"/><path class="cls-2" d="M0,279.73c146,63.39,321.27,50,458.12-50.57L770,0H0Z"/><path class="cls-3" d="M914.47,357.62,659.78,554H1038V324.15A167.53,167.53,0,0,0,914.47,357.62Z"/><rect class="cls-4" x="841" y="66" width="102" height="102" rx="23.52"/><rect class="cls-5" x="883.73" y="94.27" width="45.47" height="45.47" rx="22.73"/><rect class="cls-6" x="863.07" y="102.53" width="45.47" height="45.47" rx="22.73"/><rect class="cls-7" x="865.13" y="81.87" width="45.47" height="45.47" rx="22.73"/><circle class="cls-8" cx="723" cy="474.06" r="5.94"/><circle class="cls-9" cx="723" cy="471.94" r="5.94"/><circle class="cls-8" cx="723" cy="424.06" r="5.94"/><circle class="cls-9" cx="723" cy="421.94" r="5.94"/><circle class="cls-8" cx="793" cy="474.06" r="5.94"/><circle class="cls-9" cx="793" cy="471.94" r="5.94"/><circle class="cls-8" cx="793" cy="424.06" r="5.94"/><circle class="cls-9" cx="793" cy="421.94" r="5.94"/></g></g></svg>