<svg xmlns="http://www.w3.org/2000/svg" viewBox="0 0 1280 854" width="1280" height="854">
	<style>
		tspan { white-space:pre }
		.shp0 { fill: #1866ed } 
		.shp1 { fill: #0c45a8 } 
		.shp2 { fill: #65c4ff } 
		.shp3 { fill: #ffffff } 
	</style>
	<g id="Layer_2">
		<g id="Layer_1-2">
			<path id="Layer" class="shp0" d="M865.3 -3.21L-326.12 -3.21L-326.12 429.62L-326.12 854L694.77 854L1280 854L1280 498.35L1280 -3.21L865.3 -3.21L865.3 -3.21Z" />
			<path id="Layer" class="shp1" d="M1051.83 149.85L1104.41 149.85C1118.51 149.85 1129.91 161.24 1129.91 175.35L1129.91 206.12C1129.91 220.22 1118.51 231.62 1104.41 231.62L1051.83 231.62C1037.73 231.62 1026.33 220.22 1026.33 206.12L1026.33 175.35C1026.33 161.24 1037.73 149.85 1051.83 149.85Z" />
			<path id="Layer" class="shp2" d="M1046.11 139.99L1075.66 139.99L1075.66 135.09C1075.65 131.2 1074.87 127.35 1073.38 123.76C1071.89 120.17 1069.7 116.91 1066.96 114.16C1064.21 111.41 1060.94 109.23 1057.36 107.73C1053.77 106.24 1049.92 105.47 1046.03 105.45L1001.71 105.45C997.83 105.47 993.98 106.24 990.39 107.73C986.8 109.23 983.54 111.41 980.79 114.16C978.04 116.91 975.86 120.17 974.36 123.76C972.87 127.35 972.1 131.2 972.08 135.09L972.08 157.6C972.1 161.49 972.87 165.33 974.36 168.92C975.86 172.51 978.04 175.77 980.79 178.52C983.54 181.27 986.8 183.46 990.39 184.95C993.98 186.44 997.83 187.22 1001.71 187.23L1016.48 187.23L1016.48 169.62C1016.49 165.73 1017.26 161.88 1018.75 158.29C1020.25 154.7 1022.43 151.44 1025.18 148.69C1027.93 145.94 1031.19 143.76 1034.78 142.27C1038.37 140.77 1042.22 140 1046.11 139.99L1046.11 139.99Z" />
			<path id="Layer" class="shp3" d="M1075.66 157.6L1075.66 139.99L1046.11 139.99C1042.22 140 1038.37 140.77 1034.78 142.27C1031.19 143.76 1027.93 145.94 1025.18 148.69C1022.43 151.44 1020.25 154.7 1018.75 158.29C1017.26 161.88 1016.49 165.73 1016.48 169.62L1016.48 187.23L1046.03 187.23C1049.92 187.22 1053.77 186.44 1057.36 184.95C1060.94 183.46 1064.21 181.27 1066.96 178.52C1069.7 175.77 1071.89 172.51 1073.38 168.92C1074.87 165.33 1075.65 161.49 1075.66 157.6Z" />
		</g>
	</g>
</svg>