<svg xmlns="http://www.w3.org/2000/svg" viewBox="0 0 1280 854" width="1280" height="854">
	<style>
		tspan { white-space:pre }
		.shp0 { fill: #f0f3f8 } 
		.shp1 { fill: #f8fafc } 
		.shp2 { fill: #ffffff } 
		.shp3 { fill: #264cff } 
		.shp4 { fill: #2debc9 } 
	</style>
	<g id="Layer_2">
		<g id="Layer_1-2">
			<path id="Layer" class="shp0" d="M865.85 -2.11L502.9 -2.11L709.98 204.96L715.57 210.57C845.15 340.13 845.15 550.19 715.57 679.76L541.33 854L1280 854L1280 -2.11L865.85 -2.11Z" />
			<path id="Layer" class="shp1" d="M715.57 210.57L709.98 204.96L502.9 -2.11L-324.05 -2.11L-324.05 854L541.33 854L715.57 679.76C845.15 550.19 845.15 340.13 715.57 210.57Z" />
			<path id="Layer" class="shp2" d="M975.57 182.54L975.57 224.36C975.57 224.47 975.57 224.59 975.57 224.7C1010.28 257.84 1108.47 248.02 1127.01 245.81C1127.52 244.07 1127.97 242.31 1128.35 240.54C1128.74 238.77 1129.06 236.99 1129.32 235.19C1129.58 233.4 1129.77 231.6 1129.9 229.79C1130.03 227.98 1130.1 226.17 1130.1 224.36L1130.1 203.28C1130.1 203.28 1013.96 219.23 975.57 182.54Z" />
			<path id="Layer" class="shp3" d="M975.57 224.7C975.7 243.25 982.49 261.14 994.72 275.1C1006.95 289.05 1023.79 298.14 1042.17 300.7C1060.55 303.27 1079.23 299.13 1094.81 289.05C1110.39 278.97 1121.82 263.62 1127.01 245.81C1108.47 248.02 1010.29 257.84 975.57 224.7Z" />
			<path id="Layer" class="shp4" d="M1091.92 133.03L1006.48 133.03C1002.42 133.03 998.4 133.83 994.65 135.38C990.9 136.93 987.49 139.21 984.62 142.08C981.75 144.95 979.48 148.36 977.92 152.11C976.37 155.86 975.57 159.88 975.57 163.94L975.57 182.48C1013.96 219.17 1130.1 203.22 1130.1 203.22L1130.1 171.21C1130.1 166.2 1129.12 161.23 1127.2 156.6C1125.28 151.97 1122.47 147.76 1118.92 144.21C1115.37 140.67 1111.16 137.85 1106.53 135.94C1101.9 134.02 1096.93 133.03 1091.92 133.03L1091.92 133.03Z" />
		</g>
	</g>
</svg>