<svg xmlns="http://www.w3.org/2000/svg" viewBox="0 0 1280 854" width="1280" height="854">
	<style>
		tspan { white-space:pre }
		.shp0 { fill: #fa9f0c } 
		.shp1 { fill: #f98c0b } 
		.shp2 { fill: #fbb70f } 
		.shp3 { fill: #6b4200 } 
		.shp4 { opacity: 0.502;fill: #e68e00 } 
		.shp5 { fill: #ffffff } 
		.shp6 { opacity: 0.502;fill: #d28100 } 
	</style>
	<g id="Layer_2">
		<g id="Layer_1-2">
			<path id="Layer" class="shp0" d="M-309.89 431.21L-309.89 854L700.69 854L1090.79 551.28C1104.08 540.97 1118.34 532 1133.37 524.5C1148.39 517 1164.12 510.99 1180.31 506.58C1196.5 502.16 1213.08 499.36 1229.82 498.2C1246.55 497.04 1263.36 497.54 1280 499.68L1280 0L869.51 0L391.81 353.25C182.2 508.25 -86.26 528.93 -309.89 431.21Z" />
			<path id="Layer" class="shp1" d="M-309.89 431.21C-86.26 528.93 182.2 508.28 391.81 353.25L869.51 0L-309.89 0L-309.89 431.21Z" />
			<path id="Layer" class="shp2" d="M1090.79 551.28L700.69 854L1280 854L1280 499.68C1263.36 497.54 1246.55 497.04 1229.82 498.2C1213.08 499.36 1196.5 502.16 1180.31 506.58C1164.12 510.99 1148.39 517 1133.37 524.5C1118.34 532 1104.08 540.97 1090.79 551.28L1090.79 551.28Z" />
			<path id="Layer" class="shp3" d="M1014.28 101.74L1098.46 101.74C1118.39 101.74 1134.49 117.95 1134.49 138L1134.49 222.72C1134.49 242.77 1118.39 258.97 1098.46 258.97L1014.28 258.97C994.36 258.97 978.26 242.77 978.26 222.72L978.26 138C978.26 117.95 994.36 101.74 1014.28 101.74Z" />
			<path id="Layer" class="shp4" d="M1078.52 145.32L1078.54 145.32C1097.79 145.32 1113.35 160.98 1113.35 180.36L1113.35 180.37C1113.35 199.75 1097.79 215.41 1078.54 215.41L1078.52 215.41C1059.27 215.41 1043.71 199.75 1043.71 180.37L1043.71 180.36C1043.71 160.98 1059.27 145.32 1078.52 145.32Z" />
			<path id="Layer" class="shp5" d="M1046.88 158.05L1046.89 158.05C1066.15 158.05 1081.71 173.71 1081.71 193.09L1081.71 193.11C1081.71 212.48 1066.15 228.14 1046.89 228.14L1046.88 228.14C1027.62 228.14 1012.06 212.48 1012.06 193.11L1012.06 193.09C1012.06 173.71 1027.62 158.05 1046.88 158.05Z" />
			<path id="Layer" class="shp6" d="M1050.03 126.2L1050.05 126.2C1069.3 126.2 1084.86 141.87 1084.86 161.24L1084.86 161.26C1084.86 180.63 1069.3 196.3 1050.05 196.3L1050.03 196.3C1030.78 196.3 1015.22 180.63 1015.22 161.26L1015.22 161.24C1015.22 141.87 1030.78 126.2 1050.03 126.2Z" />
		</g>
	</g>
</svg>