<svg xmlns="http://www.w3.org/2000/svg" xmlns:xlink="http://www.w3.org/1999/xlink" width="264" height="44" viewBox="0 0 264 44">
  <defs>
    <clipPath id="clip-path">
      <rect width="264" height="44" fill="none"/>
    </clipPath>
  </defs>
  <g id="Repeat_Grid_26" data-name="Repeat Grid 26" clip-path="url(#clip-path)">
    <g transform="translate(-194 -646)">
      <g id="Group_218" data-name="Group 218" transform="translate(-244 1533.785) rotate(-90)">
        <circle id="Ellipse_29" data-name="Ellipse 29" cx="3" cy="3" r="3" transform="translate(881.785 438)" fill="#65c4ff"/>
      </g>
    </g>
    <g transform="translate(-170 -646)">
      <g id="Group_218-2" data-name="Group 218" transform="translate(-244 1533.785) rotate(-90)">
        <circle id="Ellipse_29-2" data-name="Ellipse 29" cx="3" cy="3" r="3" transform="translate(881.785 438)" fill="#65c4ff"/>
      </g>
    </g>
    <g transform="translate(-146 -646)">
      <g id="Group_218-3" data-name="Group 218" transform="translate(-244 1533.785) rotate(-90)">
        <circle id="Ellipse_29-3" data-name="Ellipse 29" cx="3" cy="3" r="3" transform="translate(881.785 438)" fill="#65c4ff"/>
      </g>
    </g>
    <g transform="translate(-122 -646)">
      <g id="Group_218-4" data-name="Group 218" transform="translate(-244 1533.785) rotate(-90)">
        <circle id="Ellipse_29-4" data-name="Ellipse 29" cx="3" cy="3" r="3" transform="translate(881.785 438)" fill="#65c4ff"/>
      </g>
    </g>
    <g transform="translate(-98 -646)">
      <g id="Group_218-5" data-name="Group 218" transform="translate(-244 1533.785) rotate(-90)">
        <circle id="Ellipse_29-5" data-name="Ellipse 29" cx="3" cy="3" r="3" transform="translate(881.785 438)" fill="#65c4ff"/>
      </g>
    </g>
    <g transform="translate(-74 -646)">
      <g id="Group_218-6" data-name="Group 218" transform="translate(-244 1533.785) rotate(-90)">
        <circle id="Ellipse_29-6" data-name="Ellipse 29" cx="3" cy="3" r="3" transform="translate(881.785 438)" fill="#65c4ff"/>
      </g>
    </g>
    <g transform="translate(-50 -646)">
      <g id="Group_218-7" data-name="Group 218" transform="translate(-244 1533.785) rotate(-90)">
        <circle id="Ellipse_29-7" data-name="Ellipse 29" cx="3" cy="3" r="3" transform="translate(881.785 438)" fill="#65c4ff"/>
      </g>
    </g>
    <g transform="translate(-26 -646)">
      <g id="Group_218-8" data-name="Group 218" transform="translate(-244 1533.785) rotate(-90)">
        <circle id="Ellipse_29-8" data-name="Ellipse 29" cx="3" cy="3" r="3" transform="translate(881.785 438)" fill="#65c4ff"/>
      </g>
    </g>
    <g transform="translate(-2 -646)">
      <g id="Group_218-9" data-name="Group 218" transform="translate(-244 1533.785) rotate(-90)">
        <circle id="Ellipse_29-9" data-name="Ellipse 29" cx="3" cy="3" r="3" transform="translate(881.785 438)" fill="#65c4ff"/>
      </g>
    </g>
    <g transform="translate(22 -646)">
      <g id="Group_218-10" data-name="Group 218" transform="translate(-244 1533.785) rotate(-90)">
        <circle id="Ellipse_29-10" data-name="Ellipse 29" cx="3" cy="3" r="3" transform="translate(881.785 438)" fill="#65c4ff"/>
      </g>
    </g>
    <g transform="translate(46 -646)">
      <g id="Group_218-11" data-name="Group 218" transform="translate(-244 1533.785) rotate(-90)">
        <circle id="Ellipse_29-11" data-name="Ellipse 29" cx="3" cy="3" r="3" transform="translate(881.785 438)" fill="#65c4ff"/>
      </g>
    </g>
    <g transform="translate(-194 -622)">
      <g id="Group_218-12" data-name="Group 218" transform="translate(-244 1533.785) rotate(-90)">
        <circle id="Ellipse_29-12" data-name="Ellipse 29" cx="3" cy="3" r="3" transform="translate(881.785 438)" fill="#65c4ff"/>
      </g>
    </g>
    <g transform="translate(-170 -622)">
      <g id="Group_218-13" data-name="Group 218" transform="translate(-244 1533.785) rotate(-90)">
        <circle id="Ellipse_29-13" data-name="Ellipse 29" cx="3" cy="3" r="3" transform="translate(881.785 438)" fill="#65c4ff"/>
      </g>
    </g>
    <g transform="translate(-146 -622)">
      <g id="Group_218-14" data-name="Group 218" transform="translate(-244 1533.785) rotate(-90)">
        <circle id="Ellipse_29-14" data-name="Ellipse 29" cx="3" cy="3" r="3" transform="translate(881.785 438)" fill="#65c4ff"/>
      </g>
    </g>
    <g transform="translate(-122 -622)">
      <g id="Group_218-15" data-name="Group 218" transform="translate(-244 1533.785) rotate(-90)">
        <circle id="Ellipse_29-15" data-name="Ellipse 29" cx="3" cy="3" r="3" transform="translate(881.785 438)" fill="#65c4ff"/>
      </g>
    </g>
    <g transform="translate(-98 -622)">
      <g id="Group_218-16" data-name="Group 218" transform="translate(-244 1533.785) rotate(-90)">
        <circle id="Ellipse_29-16" data-name="Ellipse 29" cx="3" cy="3" r="3" transform="translate(881.785 438)" fill="#65c4ff"/>
      </g>
    </g>
    <g transform="translate(-74 -622)">
      <g id="Group_218-17" data-name="Group 218" transform="translate(-244 1533.785) rotate(-90)">
        <circle id="Ellipse_29-17" data-name="Ellipse 29" cx="3" cy="3" r="3" transform="translate(881.785 438)" fill="#65c4ff"/>
      </g>
    </g>
    <g transform="translate(-50 -622)">
      <g id="Group_218-18" data-name="Group 218" transform="translate(-244 1533.785) rotate(-90)">
        <circle id="Ellipse_29-18" data-name="Ellipse 29" cx="3" cy="3" r="3" transform="translate(881.785 438)" fill="#65c4ff"/>
      </g>
    </g>
    <g transform="translate(-26 -622)">
      <g id="Group_218-19" data-name="Group 218" transform="translate(-244 1533.785) rotate(-90)">
        <circle id="Ellipse_29-19" data-name="Ellipse 29" cx="3" cy="3" r="3" transform="translate(881.785 438)" fill="#65c4ff"/>
      </g>
    </g>
    <g transform="translate(-2 -622)">
      <g id="Group_218-20" data-name="Group 218" transform="translate(-244 1533.785) rotate(-90)">
        <circle id="Ellipse_29-20" data-name="Ellipse 29" cx="3" cy="3" r="3" transform="translate(881.785 438)" fill="#65c4ff"/>
      </g>
    </g>
    <g transform="translate(22 -622)">
      <g id="Group_218-21" data-name="Group 218" transform="translate(-244 1533.785) rotate(-90)">
        <circle id="Ellipse_29-21" data-name="Ellipse 29" cx="3" cy="3" r="3" transform="translate(881.785 438)" fill="#65c4ff"/>
      </g>
    </g>
    <g transform="translate(46 -622)">
      <g id="Group_218-22" data-name="Group 218" transform="translate(-244 1533.785) rotate(-90)">
        <circle id="Ellipse_29-22" data-name="Ellipse 29" cx="3" cy="3" r="3" transform="translate(881.785 438)" fill="#65c4ff"/>
      </g>
    </g>
  </g>
</svg>
