<svg xmlns="http://www.w3.org/2000/svg" xmlns:xlink="http://www.w3.org/1999/xlink" viewBox="0 0 421.67 240.23"><defs><style>.cls-1,.cls-14,.cls-15{fill:none;}.cls-2{opacity:0;fill:url(#linear-gradient);}.cls-2,.cls-3,.cls-4,.cls-6{isolation:isolate;}.cls-4,.cls-6{font-size:9.99px;fill:#999;font-family:SegoeUI-Bold, Segoe UI;font-weight:700;}.cls-4{letter-spacing:0.31em;}.cls-5,.cls-6{letter-spacing:0.3em;}.cls-7{fill:#fff;}.cls-8{fill:#264cff;}.cls-9{fill:#4bf3d5;}.cls-10{clip-path:url(#clip-path);}.cls-11{fill:url(#linear-gradient-2);}.cls-12{fill:#2debc9;}.cls-13{clip-path:url(#clip-path-2);}.cls-14,.cls-15{stroke:#ccc;stroke-width:1px;}.cls-14{stroke-miterlimit:9.99;}.cls-15{stroke-miterlimit:4;}</style><linearGradient id="linear-gradient" x1="-1952.73" y1="1104.03" x2="-1953.29" y2="1104.58" gradientTransform="matrix(312.39, -0.02, -0.01, -195.56, 610237.4, 215998.33)" gradientUnits="userSpaceOnUse"><stop offset="0" stop-color="#fff"/><stop offset="1" stop-color="#dae4f7"/></linearGradient><clipPath id="clip-path" transform="translate(109.27 0.89)"><path class="cls-1" d="M264.68,137.08a5,5,0,0,1,6.8-2,5.07,5.07,0,0,1,1.95,2l8.7,15.65a5,5,0,0,1-4.38,7.42h-17.4a5,5,0,0,1-5-5,5.06,5.06,0,0,1,.63-2.43Z"/></clipPath><linearGradient id="linear-gradient-2" x1="-1937.4" y1="1105.78" x2="-1937.4" y2="1104.79" gradientTransform="matrix(70.56, 0, 0, -109.58, 136884.39, 121196.77)" gradientUnits="userSpaceOnUse"><stop offset="0" stop-color="#60d9fd"/><stop offset="0.51" stop-color="#1236ff"/><stop offset="1" stop-color="#2f0acb"/></linearGradient><clipPath id="clip-path-2" transform="translate(109.27 0.89)"><path class="cls-1" d="M10,0H302.4a10,10,0,0,1,10,10V185.32a10,10,0,0,1-10,10H10a10,10,0,0,1-10-10V10A10,10,0,0,1,10,0Z"/></clipPath></defs><g id="Layer_2" data-name="Layer 2"><g id="Layer_1-2" data-name="Layer 1"><path id="Rectangle_233" data-name="Rectangle 233" class="cls-2" d="M10,0,302.39,0a10,10,0,0,1,10,10V185.31a10,10,0,0,1-10,10H10a10,10,0,0,1-10-10V10A10,10,0,0,1,10,0Z" transform="translate(109.27 0.89)"/><g id="Group_183" data-name="Group 183"><g id="ETH-4" class="cls-3"><text class="cls-4" transform="translate(354.65 37.74)">E<tspan class="cls-5" x="8.4" y="0">TH</tspan></text></g><g id="ETH-5" class="cls-3"><text class="cls-4" transform="translate(354.65 37.74)">E<tspan class="cls-5" x="8.4" y="0">TH</tspan></text></g><g id="ETH-6" class="cls-3"><text class="cls-4" transform="translate(354.65 37.74)">E<tspan class="cls-5" x="8.4" y="0">TH</tspan></text></g><g id="_38.4-3" data-name=" 38.4-3" class="cls-3"><text class="cls-6" transform="translate(354.65 59.3)">38.4</text></g><g id="_38.4-4" data-name=" 38.4-4" class="cls-3"><text class="cls-6" transform="translate(354.65 59.3)">38.4</text></g></g><g id="Group_179" data-name="Group 179"><path id="Polygon_18" data-name="Polygon 18" class="cls-7" d="M247.48,148.15a5,5,0,0,1,8.76,0l2.54,4.6a5,5,0,0,1-4.38,7.4h-5.08a5,5,0,0,1-4.37-7.4Z" transform="translate(109.27 0.89)"/><path id="Polygon_21" data-name="Polygon 21" class="cls-8" d="M265.05,136.89a5,5,0,0,1,8.7,0l9,15.81a5,5,0,0,1-4.36,7.45H260.44a5,5,0,0,1-4.35-7.45Z" transform="translate(109.27 0.89)"/><path id="Polygon_20" data-name="Polygon 20" class="cls-9" d="M251,142.37a5,5,0,0,1,6.82-1.88,5.06,5.06,0,0,1,1.88,1.88l5.86,10.32a5,5,0,0,1-4.35,7.46H249.44a5,5,0,0,1-5-5,5.09,5.09,0,0,1,.65-2.47Z" transform="translate(109.27 0.89)"/><g class="cls-10"><g id="Mask_Group_63" data-name="Mask Group 63"><path id="Polygon_22" data-name="Polygon 22" class="cls-7" d="M250.63,142.15a5,5,0,0,1,6.84-1.81,4.91,4.91,0,0,1,1.81,1.81l6.1,10.5a5,5,0,0,1-1.81,6.83,5,5,0,0,1-2.51.67H248.85a5,5,0,0,1-4.32-7.5Z" transform="translate(109.27 0.89)"/></g></g></g><g id="Group_180" data-name="Group 180"><path id="Path_246" data-name="Path 246" class="cls-11" d="M204,139.88a5.15,5.15,0,0,1-3.92-8.46,55.16,55.16,0,0,0-42.14-90.7,5.14,5.14,0,1,1,0-10.27,65.42,65.42,0,0,1,50,107.61A5.16,5.16,0,0,1,204,139.88Z" transform="translate(109.27 0.89)"/><path id="Path_248" data-name="Path 248" class="cls-12" d="M112.22,49a5.14,5.14,0,0,1,3.62,8.59,55.15,55.15,0,0,0,38.95,92.11,5.14,5.14,0,1,1-.36,10.27,65.41,65.41,0,0,1-46.2-109.28A5.12,5.12,0,0,1,112.22,49Z" transform="translate(109.27 0.89)"/><g id="Polygon_25" data-name="Polygon 25"><path class="cls-1" d="M138.68,43a5,5,0,0,1-5.4,4.55,4.93,4.93,0,0,1-2.46-.89l-3.26-2.29a5,5,0,0,1,.77-8.61l3.59-1.67a5,5,0,0,1,6.64,2.42,4.9,4.9,0,0,1,.45,2.53Z" transform="translate(109.27 0.89)"/><path class="cls-12" d="M134.12,43.5a.94.94,0,0,0,.57-.82l.34-4a1,1,0,0,0-1.42-1L130,39.4a.94.94,0,0,0-.57.82.93.93,0,0,0,.42.9l3.25,2.29a1,1,0,0,0,1,.09m1.69,3.62a5,5,0,0,1-5-.44l-3.26-2.29a5,5,0,0,1,.77-8.61l3.59-1.67a5,5,0,0,1,7.1,4.94l-.34,4A4.93,4.93,0,0,1,135.81,47.12Z" transform="translate(109.27 0.89)"/></g><g id="Polygon_26" data-name="Polygon 26"><path class="cls-1" d="M176,146.52a5,5,0,0,1,7.73-3.93l3.33,2.17a5,5,0,0,1,1.45,6.92,5.08,5.08,0,0,1-1.91,1.71l-3.53,1.8a5,5,0,0,1-7.26-4.7Z" transform="translate(109.27 0.89)"/><path class="cls-8" d="M180.52,145.88a.93.93,0,0,0-.54.84l-.2,4a.94.94,0,0,0,.45.89,1,1,0,0,0,1,0l3.53-1.8a1,1,0,0,0,.55-.83,1,1,0,0,0-.45-.89l-3.34-2.18a1,1,0,0,0-1-.05m-1.82-3.56a4.94,4.94,0,0,1,5,.27l3.33,2.17a5,5,0,0,1-.46,8.63l-3.53,1.8a5,5,0,0,1-7.27-4.7l.2-4A5,5,0,0,1,178.7,142.32Z" transform="translate(109.27 0.89)"/></g></g><g class="cls-13"><g id="Mask_Group_95" data-name="Mask Group 95"><g id="Group_355" data-name="Group 355"><path id="Path_87-2" data-name="Path 87-2" class="cls-14" d="M-2.84-.86s-2.82,41,33.4,47.09c40.61,6.88,37.84,54.35,15.73,79.18s-55.54,10-81,63.37c-26.07,54.59-74.48,50-74.48,50" transform="translate(109.27 0.89)"/><path id="Path_88-2" data-name="Path 88-2" class="cls-14" d="M-31.74,36.82s21.42,26.25,52.29,31.32,22.79,31.4,14.94,40.14C19.19,126.43-19.38,116.61-37,149.2c-13.23,24.5-14.38,63.67-54.79,69.49" transform="translate(109.27 0.89)"/><path id="Path_89-2" data-name="Path 89-2" class="cls-14" d="M-26.64,58.34S5,63.67-11.42,86.46C-30.26,112.57-44,106.87-47.13,147.72c-1.09,14.53-23.07,66.46-44.28,46.37" transform="translate(109.27 0.89)"/><path id="Path_531-2" data-name="Path 531-2" class="cls-15" d="M1.43,89.89c2.7-5.94,10.75-8.56,18-5.85s10.91,9.74,8.2,15.68-10.75,8.57-18,5.85S-1.27,95.84,1.43,89.89Z" transform="translate(109.27 0.89)"/></g></g></g></g></g></svg>