<svg xmlns="http://www.w3.org/2000/svg" viewBox="0 0 125.66 126.13"><g id="Layer_2" data-name="Layer 2"><g id="Layer_1-2" data-name="Layer 1"><g id="Group_762" data-name="Group 762"><path id="Path_1107" data-name="Path 1107" d="M26.17,69.85H.13a63.07,63.07,0,0,0,62.51,56.28Z"/><path id="Path_1108" data-name="Path 1108" d="M18.33,57.75H32.76L40.6,69.86l22.06,34,22.07-34,7.84-12.11h33.09A63.07,63.07,0,0,0,62.83,0h-.17L93.93,48.25H31.39L62.66,0A63.06,63.06,0,0,0,0,57.75Zm63,0L62.66,86.61,44,57.75Z"/><path id="Path_1109" data-name="Path 1109" d="M99.16,69.85,62.68,126.13h.15a63.06,63.06,0,0,0,62.7-56.28Z"/></g></g></g></svg>