<svg xmlns="http://www.w3.org/2000/svg" viewBox="0 0 88.91 23.58"><defs><style>.cls-1{fill:#ccc;}</style></defs><g id="Layer_2" data-name="Layer 2"><g id="Layer_1-2" data-name="Layer 1"><path class="cls-1" d="M0,23.19V.39H4.17V19.93H14.26v3.26Z"/><path class="cls-1" d="M26.57,23.58a11.58,11.58,0,0,1-6-1.5,10.6,10.6,0,0,1-4-4.15,12.69,12.69,0,0,1-1.45-6.14,12.69,12.69,0,0,1,1.45-6.14,10.6,10.6,0,0,1,4-4.15,11.58,11.58,0,0,1,6-1.5,11.6,11.6,0,0,1,6,1.5,10.47,10.47,0,0,1,4,4.15A12.68,12.68,0,0,1,38,11.79a12.68,12.68,0,0,1-1.43,6.14,10.47,10.47,0,0,1-4,4.15A11.6,11.6,0,0,1,26.57,23.58Zm0-3.75a6.62,6.62,0,0,0,5.2-2.15,8.47,8.47,0,0,0,1.94-5.89,8.51,8.51,0,0,0-1.94-5.9,6.65,6.65,0,0,0-5.2-2.14,6.71,6.71,0,0,0-5.21,2.14,8.47,8.47,0,0,0-1.95,5.9,8.42,8.42,0,0,0,1.95,5.89A6.69,6.69,0,0,0,26.57,19.83Z"/><path class="cls-1" d="M51.62,23.58A10.63,10.63,0,0,1,46,22.11,10,10,0,0,1,42.24,18a13.32,13.32,0,0,1-1.34-6.11,13.24,13.24,0,0,1,1.39-6.2,10.13,10.13,0,0,1,3.94-4.21A11.68,11.68,0,0,1,52.3,0,11,11,0,0,1,59,1.92a8.78,8.78,0,0,1,3.41,5.31H57.71a4.63,4.63,0,0,0-1.89-2.49,6.3,6.3,0,0,0-3.52-.9A6.53,6.53,0,0,0,47,6,8.81,8.81,0,0,0,45.17,12,8.5,8.5,0,0,0,47,17.8a6.35,6.35,0,0,0,5,2.07,6.1,6.1,0,0,0,4.67-1.68,7.58,7.58,0,0,0,1.91-4.41H52.82V10.65h10V23.19H59l-.33-3a7.64,7.64,0,0,1-2.77,2.51A9.09,9.09,0,0,1,51.62,23.58Z"/><path class="cls-1" d="M77.51,23.58a11.62,11.62,0,0,1-6-1.5,10.58,10.58,0,0,1-4-4.15,12.58,12.58,0,0,1-1.45-6.14,12.58,12.58,0,0,1,1.45-6.14,10.58,10.58,0,0,1,4-4.15,12.63,12.63,0,0,1,11.94,0,10.44,10.44,0,0,1,4,4.15,12.69,12.69,0,0,1,1.44,6.14,12.69,12.69,0,0,1-1.44,6.14,10.44,10.44,0,0,1-4,4.15A11.62,11.62,0,0,1,77.51,23.58Zm0-3.75a6.62,6.62,0,0,0,5.19-2.15,8.47,8.47,0,0,0,1.94-5.89,8.51,8.51,0,0,0-1.94-5.9,7.39,7.39,0,0,0-10.4,0,8.42,8.42,0,0,0-2,5.9,8.38,8.38,0,0,0,2,5.89A6.67,6.67,0,0,0,77.51,19.83Z"/></g></g></svg>