<svg xmlns="http://www.w3.org/2000/svg" viewBox="0 0 111.62 129.66"><g id="Layer_2" data-name="Layer 2"><g id="Layer_1-2" data-name="Layer 1"><path id="Path_1106" data-name="Path 1106" d="M70.57,44.8a129.24,129.24,0,0,0-13.18,2.67c-2.29.76-3.83,1.29-4.84,1.66l6.15,9.63L16.68,49,47.17,16.39,47,27.88A41.58,41.58,0,0,1,52.4,27h0a80.19,80.19,0,0,1,14.53-.68l.18,0c5.62.39,31.68,3.25,44.06,22.09l.09-1,0-.37.23-4,0-.72A125,125,0,0,0,111,25.25l-.36-3.62L55.81,0,1,21.63.62,25.25A128.33,128.33,0,0,0,.08,42.34l0,.72.23,4,0,.37c.09,1.25.21,2.51.34,3.77A113.57,113.57,0,0,0,3.5,66.74l.14.56,1,3.67S5,72.2,5.11,72.4c.41,1.29.83,2.54,1.25,3.72,0,0,0,.09,0,.13,7.11,6.13,18,10.07,34.65,8a130.84,130.84,0,0,0,13.18-2.66c2.3-.77,3.83-1.3,4.85-1.67l-6.15-9.62,42,9.74L64.46,112.62l.2-11.49a41.45,41.45,0,0,1-5.43.86h0a80.26,80.26,0,0,1-14.53.67h-.19A73.15,73.15,0,0,1,15,93.92c.33.54.67,1.08,1,1.61.72,1.11,1.49,2.24,2.29,3.34a96.73,96.73,0,0,0,34.78,29.38l2.73,1.41,2.73-1.41A96.74,96.74,0,0,0,93.35,98.84c.79-1.1,1.56-2.22,2.28-3.34.47-.71.93-1.44,1.38-2.17l.31-.51,1.91-3.34h0l.21-.39a96.25,96.25,0,0,0,5.82-13c.42-1.16.83-2.42,1.24-3.72.07-.2.44-1.43.44-1.43l1-3.67.14-.56c.74-2.9,1.36-5.87,1.86-8.88C103.32,49.06,91.51,42.13,70.57,44.8Z"/></g></g></svg>