<svg xmlns="http://www.w3.org/2000/svg" viewBox="0 0 94.91 129.66"><g id="Layer_2" data-name="Layer 2"><g id="Layer_1-2" data-name="Layer 1"><g id="Group_763" data-name="Group 763"><path id="Path_1110" data-name="Path 1110" d="M47.72,106.65l6.18-3.87V63.43L41,69.91v32.65Z"/><path id="Path_1111" data-name="Path 1111" d="M74.31,90v-32L61.37,64.53V98.11Z"/><path id="Path_1112" data-name="Path 1112" d="M33.51,98V68.8L20.57,75.27V90.2Z"/><path id="Path_1113" data-name="Path 1113" d="M7.78,105.37A16.92,16.92,0,0,1,.3,91.45L.17,72.65l12.88-5,.18,25.9,34.54,20.92L82,93.05l-.19-25.9,13,4.81.14,18.8a16.92,16.92,0,0,1-7.35,14.08c-.31.21-.67.44-1.14.71l-11.54,7.22-27,16.89Z"/><path id="Path_1114" data-name="Path 1114" d="M94.61,48.9l-12.5-4.65L82,34.66A34.84,34.84,0,0,0,12.36,35v.15l.07,9.59L0,49.58.1,63.43,47.27,45.11,94.71,62.74ZM47.17,31.27,23.84,40.33l0-5.25a23.41,23.41,0,1,1,46.81-.84c0,.16,0,.33,0,.5l0,5.25Z"/></g></g></g></svg>