<svg xmlns="http://www.w3.org/2000/svg" viewBox="0 0 142 44.19"><defs><style>.cls-1{fill:#fff;}.cls-2{fill:#71bfeb;}</style></defs><g id="Layer_2" data-name="Layer 2"><g id="Layer_1-2" data-name="Layer 1"><g id="Brand_Logo" data-name="Brand Logo"><path id="YFDAI" class="cls-1" d="M137.94,22.15V2.37H142V22.15Zm-8.33,0-2.2-5.26h-5.63l1.42-3.59h2.71l-2.66-6.36-4.63,11.35-1.57,3.86h-4.2l8.4-19.78h4.17L134,22.15Zm-54.15,0V2.37H88.62V5.94H79.5V10.3h8.66V14h-8.7v8.16Zm-15.2,0V15.23L52.67,2.37h4.41l5.28,9,5-9h4.27L64.32,15.23v6.92Zm32.8,0V2.37h7.8c6.52,0,9.82,3.15,9.82,9.37,0,6.91-3.3,10.41-9.82,10.41Zm4.07-3.59h3.73c3.88,0,5.76-2.23,5.76-6.82,0-3.89-1.88-5.78-5.76-5.78H97.13Z"/><g id="LOGO"><path id="BOTTOM" class="cls-2" d="M24.42,38.29h12.9a22,22,0,0,1-12.9,5.9ZM7,38.29h12.9v5.9A22,22,0,0,1,7,38.29Zm17.44-4.53V28.48h19A22.18,22.18,0,0,1,41,33.76Zm-21.14,0A21.75,21.75,0,0,1,.92,28.48h19v5.28Z"/><path id="TOP" class="cls-1" d="M24.42,24V20.62L38.18,6.86a22.07,22.07,0,0,1,6.13,15.3c0,.6,0,1.2-.08,1.79ZM.07,24C0,23.36,0,22.76,0,22.16A22.07,22.07,0,0,1,6.13,6.86L19.89,20.61V24Zm9.52-20a22.14,22.14,0,0,1,25.13,0L22.16,16.47Z"/></g><path id="FINANCE" class="cls-1" d="M65.94,31.19v.58H60.61v3.65h5.11V36H60.61v4.35h-.67V31.19Zm7,0v9.15h-.67V31.19Zm6.82,9.15V31.19h.86l6.11,8v-8h.61v9.15h-.55L80.31,32v8.39Zm14,0H93l4.13-9.15h.8l4.16,9.15h-.8l-1.36-3.07H96.08l.26-.58h3.34l-2.2-5Zm14.08,0V31.19h.86l6.11,8v-8h.61v9.15h-.55L108.39,32v8.39ZM128.89,40a8.87,8.87,0,0,1-2.56.38c-3.2,0-4.8-1.58-4.8-4.76q0-4.51,4.8-4.51a8.55,8.55,0,0,1,2.56.39v.57a8.06,8.06,0,0,0-2.43-.38c-2.84,0-4.25,1.31-4.25,3.93,0,2.79,1.41,4.19,4.25,4.19a8.74,8.74,0,0,0,2.43-.38Zm12.41-8.83v.58H136v3.65h5.12V36H136v3.77h5.43v.58h-6.1V31.2Z"/></g></g></g></svg>